<?xml version="1.0" encoding="UTF-8"?>
<svg id="Layer_1" xmlns="http://www.w3.org/2000/svg" width="142.504" height="142.779" viewBox="0 0 142.504 142.779">
  <defs>
    <style>
      .cls-1 {
        fill: #c79e24;
      }

      .cls-2 {
        fill: #f0bf2b;
      }

      .cls-3 {
        fill: #ffecae;
      }

      .cls-3, .cls-4 {
        fill-rule: evenodd;
      }

      .cls-4 {
        fill: #d1a41b;
      }

      .cls-5 {
        fill: #ffd324;
      }
    </style>
  </defs>
  <path class="cls-1" d="M71.471.712c19.61,0,37.372,7.953,50.227,20.807,12.855,12.855,20.807,30.617,20.807,50.227s-7.953,37.372-20.807,50.227c-12.855,12.855-30.617,20.807-50.227,20.807s-37.372-7.953-50.227-20.807C8.39,109.117.437,91.355.437,71.745s7.953-37.372,20.807-50.227C34.099,8.664,51.861.712,71.471.712h0ZM104.77,38.445c-8.52-8.52-20.294-13.79-33.3-13.79s-24.78,5.27-33.3,13.79c-8.52,8.52-13.79,20.294-13.79,33.3s5.27,24.78,13.79,33.3c8.52,8.52,20.294,13.79,33.3,13.79s24.78-5.27,33.3-13.79c8.52-8.52,13.79-20.294,13.79-33.3s-5.27-24.78-13.79-33.3h0Z"/>
  <path class="cls-5" d="M68.275,0c18.848,0,35.921,7.644,48.276,19.999,12.355,12.355,19.999,29.428,19.999,48.276s-7.644,35.921-19.999,48.276-29.428,19.999-48.276,19.999-35.921-7.644-48.276-19.999C7.644,104.196,0,87.124,0,68.275S7.644,32.355,19.999,19.999C32.354,7.644,49.427,0,68.275,0h0ZM100.282,36.269c-8.189-8.189-19.506-13.254-32.007-13.254s-23.817,5.065-32.006,13.254c-8.189,8.189-13.254,19.506-13.254,32.007s5.065,23.818,13.254,32.007c8.189,8.189,19.506,13.254,32.006,13.254s23.818-5.065,32.007-13.254c8.189-8.189,13.254-19.506,13.254-32.007s-5.065-23.817-13.254-32.007h0Z"/>
  <path class="cls-4" d="M68.277,15.341c29.5,0,53.413,23.915,53.413,53.412s-23.913,53.412-53.413,53.412S14.864,98.251,14.864,68.753,38.777,15.341,68.277,15.341h0Z"/>
  <path class="cls-2" d="M90.576,82.545v9.983c0,5.426.514,6.352-6.43,6.352-3.288,0-4.887.967-7.163-2.047-.617-.817-1.2-1.713-1.242-2.72l2.232-37.953c0-5.775-.257-8.64,7.123-8.957,6-.195,12.717-2.901,18.682-.79,11.819,5.307,15.852,22.571,5.412,30.849-4.187,3.319-10.079,5.181-16.171,5.305-.888.012-1.557-.022-2.444-.022h0ZM49.717,86.456l-7.753,12.431c-1.586,1.873-3.987,1.2-10.288-1.92-2.199-1.227-3.208-.986-4.115-4.8-.514-2.16.124-3.314.124-3.314l15.243-16.258c8.823-4.762,13.414-16.519,17.393-24.746,1.267-3.384,6.017-2.864,9.232-1.183,0,0,.754.231,1.089,2.421.514,3.36.294,4.933-.643,6.36l-11.317,18.72,10.898,14.023c1.703,2.149,1.422,3.427,1.448,4.697.031,1.55.514,2.88-1.82,4.388-5.24,3.384-8.468,4.493-10.783,1.613l-8.708-12.431h0ZM91.09,71.527c5.358-.276,16.333-3.12,15.689-9-.257-5.28-8.488-5.64-15.689-4.92v13.92h0Z"/>
  <path class="cls-5" d="M59.374,95.193l-10.548-15.732-9.996,15.492c-1.587,1.873-4.29.119-7.133-1.227-2.818-1.573-5.871-2.93-3.226-6.08l11.886-18.404-12.566-19.617c-1.662-2.593,2.242-4.479,4.421-5.699,1.913-1.072,5.111-2.887,6.625-.53,3.391,4.687,6.849,10.893,9.99,15.889l8.924-14.789c1.267-3.384,4.169-2.37,7.384-.69,4.372,2.4,6.173,2.76,3.421,6.949l-11.648,18.243,12.675,19.191c2.406,3.344.338,4.289-2.39,5.897-2.236,1.318-6.022,3.744-7.812,1.114l-.004-.007h0ZM87.232,78.247v10.92c0,5.426,1.286,6.36-5.659,6.36-4.63,0-6.001.519-6.173-3.6v-39.12c0-5.775-.257-8.64,7.123-8.957,6-.195,13.34-.341,19.304,1.77,8.089,2.862,10.685,8.562,10.867,15.932,0,11.665-10.738,16.46-22.226,16.694-.604.008-.758.002-1.362.01-.487.007-1.375-.009-1.876-.009h0ZM87.48,54.834l.01,12.493c1.678.169,3.307.242,4.598.176,5.358-.276,9.549-1.975,8.905-7.855-.761-4.589-7.229-5.208-11.521-4.987-.585.03-1.337.104-1.992.174h0Z"/>
  <path class="cls-3" d="M77.361,52.342c-.34-.031-.521-.768-.564-1.968-.043-1.2.052-2.864.7-3.856.648-.992,1.848-1.312,3.347-1.474,1.499-.162,3.297-.166,4.135.086.839.252.719.76-.244,1.182-.963.422-2.769.759-3.843.967-1.075.208-1.418.288-1.661.891-.243.603-.386,1.73-.708,2.63-.321.9-.821,1.573-1.162,1.542h0ZM17.034,28.168c1.206-3.262,5.285-9.025,11.76-13.766,6.475-4.741,15.343-8.461,20.826-9.215,5.483-.755,7.579,1.456,5.195,4.067-2.383,2.612-9.248,5.624-14.968,8.677-5.72,3.053-10.296,6.146-13.552,8.657-3.256,2.511-5.192,4.439-6.995,5.022s-3.473-.179-2.268-3.442h0ZM56.59,49.374c-.267-.118-.015-.916.505-2.017.521-1.101,1.311-2.505,2.135-3.227.824-.722,1.682-.762,3.032-.282,1.35.48,3.194,1.48,3.425,1.961.232.482-1.148.445-2.199.325-1.05-.12-1.771-.323-2.217-.344-.446-.022-.617.138-1.046.598-.429.46-1.114,1.22-1.849,1.881-.735.661-1.52,1.223-1.786,1.105h0ZM31.774,45.284c-1.372.9-2.343,1.751-2.225,2.088.118.337,1.324.16,2.546-.22,1.221-.38,2.459-.963,3.185-1.234.726-.271.94-.232,1.476.168.536.4,1.394,1.16,2.058,1.5.664.34,1.136.26,1.028-.38-.107-.64-.793-1.84-1.414-2.72-.622-.88-1.18-1.44-2.344-1.246-1.165.194-2.938,1.143-4.31,2.043h0Z"/>
</svg>