<?xml version="1.0" encoding="UTF-8"?>
<svg id="Layer_1" xmlns="http://www.w3.org/2000/svg" version="1.1" viewBox="0 0 206.3 202.7">
  <!-- Generator: Adobe Illustrator 30.4.0, SVG Export Plug-In . SVG Version: 2.1.4 Build 226)  -->
  <g id="Layer_11">
    <g>
      <g>
        <path d="M103.15,199.624c-19.129,0-37.651-5.534-53.565-16.003-1.153-.759-1.473-2.31-.714-3.463s2.311-1.473,3.462-.715c15.095,9.932,32.667,15.181,50.817,15.181,51.048,0,92.579-41.531,92.579-92.58,0-40.44-25.855-75.882-64.339-88.194-1.315-.421-2.04-1.828-1.619-3.143.422-1.316,1.833-2.037,3.143-1.62,40.562,12.977,67.815,50.333,67.815,92.957,0,53.806-43.773,97.58-97.579,97.58h0Z" fill="#fff"/>
        <path d="M138.021,30.16c-1.022,0-1.981-.632-2.351-1.648l-5.869-16.191c-.471-1.298.2-2.732,1.499-3.202l16.256-5.893c1.297-.47,2.731.2,3.202,1.498.471,1.298-.2,2.732-1.499,3.202l-13.905,5.042,5.018,13.84c.471,1.298-.2,2.732-1.499,3.203-.281.102-.568.15-.852.15h0Z" fill="#fff"/>
      </g>
      <g>
        <path d="M40.703,176.244c-.583,0-1.168-.202-1.642-.615C17.777,157.076,5.57,130.255,5.57,102.044,5.57,48.238,49.344,4.464,103.15,4.464c5.388,0,10.792.443,16.062,1.316,1.362.226,2.284,1.513,2.059,2.875-.227,1.362-1.522,2.284-2.875,2.058-5.001-.829-10.13-1.249-15.245-1.249C52.101,9.464,10.57,50.996,10.57,102.044c0,26.766,11.582,52.213,31.776,69.815,1.041.907,1.149,2.486.242,3.527-.495.567-1.188.857-1.886.857h0Z" fill="#fff"/>
        <path d="M40.704,176.244h-18.704c-1.381,0-2.5-1.119-2.5-2.5s1.119-2.5,2.5-2.5h16.204v-14.646c0-1.381,1.119-2.5,2.5-2.5s2.5,1.119,2.5,2.5v17.146c0,1.381-1.119,2.5-2.5,2.5Z" fill="#fff"/>
      </g>
    </g>
  </g>
  <path d="M175.441,67.706c-1.903-2.753-14.259-19.833-18.219-23.164-.204-.17-.425-.374-.663-.578-1.598-1.411-4.028-3.552-7.767-4.827-1.92-.646-3.943-1.02-5.999-1.105h-77.872c-1.733.017-3.45.221-5.116.612-1.513.357-4.555,1.275-7.903,3.484-1.767,1.173-3.348,2.566-4.997,4.385-2.753,3.059-17.335,21.193-19.374,27.379-2.719,8.243,2.838,15.092,6.9,20.088.697.85,1.36,1.666,1.971,2.464,5.472,7.223,28.093,36.302,35.52,45.734.476.595,1.428,1.818,2.634,3.382,8.073,10.35,12.644,16.162,13.647,17.199,2.974,3.076,5.54,5.727,9.857,7.036,1.173.34,3.008.765,5.217.765,1.547,0,3.28-.204,5.082-.782,3.416-1.105,5.625-3.11,9.262-7.189,4.232-4.742,15.788-19.595,22.688-28.467,2.039-2.617,3.62-4.657,4.402-5.625l16.485-20.751c.255-.323,8.735-11.064,9.007-11.387.595-.765,8.583-10.129,9.194-15.669.459-4.113-.884-8.481-3.96-12.984h0ZM111.284,156.93c-3.212,3.586-4.266,4.351-5.54,4.759-2.141.697-4.198.272-5.217-.034-2.124-.629-3.433-1.92-6.186-4.776-.442-.459-2.039-2.481-4.045-5.014,0-1.156-.017-2.617,0-4.3,0-2.651-.017-5.302-.017-7.954-.017-4.164-.017-7.461,0-9.721.017-.85.051-6.033.051-9.007v-5.88c0-.17.255-3.943,2.515-6.764,3.178-3.96,8.684-3.943,10.299-3.943,1.784,0,5.693,0,8.515,2.787,1.581,1.547,2.277,3.382,2.583,4.402.595,1.971.782,4.062.799,6.118.017,2.498.034,4.98.034,7.461.034,4.079.051,8.158.051,12.253.017,4.997.034,10.01.034,15.007-1.598,1.954-2.94,3.569-3.875,4.606ZM170.954,79.755c-.323,2.957-6.747,10.486-7.41,11.336-.272.323-8.922,11.268-9.024,11.387l-16.451,20.734c-.799.986-2.396,3.042-4.453,5.693-2.498,3.212-5.846,7.512-9.228,11.829,0-1.496.017-2.974.034-4.47.085-6.322.306-12.661.17-18.967-.153-6.713-1.156-12.916-5.693-17.284-2.243-2.158-4.929-3.365-5.472-3.603-4.929-2.294-12.95-1.92-16.672-.017-1.156.442-2.311.952-3.382,1.564-.374.221-1.088.714-1.564,1.037-.612.408-1.122.765-1.462,1.003-.017-1.241-.017-2.481-.017-3.722v-25.459c0-4.028-.017-8.056-.017-12.084-.085-.459-.323-1.241-.952-1.971-1.326-1.547-3.331-1.496-3.637-1.496-.408.017-1.988.068-3.314,1.309-.85.799-1.19,1.717-1.326,2.175-.034,27.073-.068,54.146-.102,81.22-1.088-1.394-1.937-2.481-2.379-3.042-7.41-9.415-29.979-38.409-35.435-45.615-.663-.867-1.394-1.767-2.141-2.685-3.909-4.827-6.594-8.515-5.421-12.084,1.19-3.62,13.103-19.34,17.607-24.337,1.156-1.275,2.226-2.226,3.382-2.974,2.396-1.581,4.538-2.175,5.15-2.311,1.054-.255,2.141-.391,3.195-.391h77.617c1.207.051,2.379.272,3.501.646,2.124.731,3.603,2.022,4.895,3.178.289.238.561.476.799.697,2.379,1.988,12.899,15.958,16.672,21.465,1.903,2.77,2.753,5.2,2.532,7.24h0Z" fill="#fff"/>
  <path id="Star" d="M128.133,54.55c.506-1.368,2.442-1.368,2.949,0l3.499,9.458c.209.569.659,1.016,1.225,1.227l9.458,3.499c1.368.506,1.368,2.44,0,2.949l-9.458,3.499c-.569.209-1.016.659-1.227,1.225l-3.499,9.458c-.506,1.37-2.442,1.37-2.949,0l-3.499-9.458c-.209-.568-.659-1.015-1.225-1.225l-9.456-3.499c-1.37-.506-1.37-2.442,0-2.949l9.456-3.499c.569-.209,1.016-.659,1.227-1.225l3.499-9.458h0v-.002Z" fill="#fff"/>
</svg>