<?xml version="1.0" encoding="UTF-8"?>
<svg id="Layer_1" xmlns="http://www.w3.org/2000/svg" version="1.1" viewBox="0 0 206.3 202.7">
  <!-- Generator: Adobe Illustrator 30.4.0, SVG Export Plug-In . SVG Version: 2.1.4 Build 226)  -->
  <g id="Layer_11" data-name="Layer_1">
    <g id="Layer_1-2">
      <g id="Layer_1-21" data-name="Layer_1-2">
        <g id="Layer_1-2-2">
          <path d="M179.5,100c0-41.4-33.6-75-75-75S29.5,58.6,29.5,100s33.6,75,75,75,75-33.6,75-75Z" display="none" fill="#fff"/>
          <path d="M173.9,122.2c-10,40.2-50.7,64.6-90.9,54.6-40.1-10-64.6-50.7-54.6-90.8,10-40.2,50.7-64.6,90.9-54.6s64.6,50.7,54.6,90.8Z" fill="#776464"/>
          <path d="M173.9,122.2c-10,40.2-50.7,64.6-90.9,54.6-40.1-10-64.6-50.7-54.6-90.8,10-40.2,50.7-64.6,90.9-54.6s64.6,50.7,54.6,90.8Z" fill="#483637"/>
          <circle cx="104.5" cy="100" r="75" fill="#776464"/>
          <path d="M44.5,100c0-33.1,26.9-60,60-60s60,26.9,60,60-26.9,60-60,60h-1.1c31.5-.6,56.8-26.3,56.8-57.9s-25.9-57.9-57.9-57.9-57.3,25.4-57.9,56.8c.1-.3.1-.6.1-1Z" fill="#483637" fill-rule="evenodd"/>
        </g>
      </g>
    </g>
    <g>
      <g>
        <path d="M103.15,199.624c-19.129,0-37.651-5.534-53.565-16.003-1.153-.759-1.473-2.31-.714-3.463s2.311-1.473,3.462-.715c15.095,9.932,32.667,15.181,50.817,15.181,51.048,0,92.579-41.531,92.579-92.58,0-40.44-25.855-75.882-64.339-88.194-1.315-.421-2.04-1.828-1.619-3.143.422-1.316,1.833-2.037,3.143-1.62,40.562,12.977,67.815,50.333,67.815,92.957,0,53.806-43.773,97.58-97.579,97.58h0Z" fill="#776464"/>
        <path d="M138.021,30.16c-1.022,0-1.981-.632-2.351-1.648l-5.869-16.191c-.471-1.298.2-2.732,1.499-3.202l16.256-5.893c1.297-.47,2.731.2,3.202,1.498.471,1.298-.2,2.732-1.499,3.202l-13.905,5.042,5.018,13.84c.471,1.298-.2,2.732-1.499,3.203-.281.102-.568.15-.852.15h0Z" fill="#776464"/>
      </g>
      <g>
        <path d="M40.703,176.244c-.583,0-1.168-.202-1.642-.615C17.777,157.076,5.57,130.255,5.57,102.044,5.57,48.238,49.344,4.464,103.15,4.464c5.388,0,10.792.443,16.062,1.316,1.362.226,2.284,1.513,2.059,2.875-.227,1.362-1.522,2.284-2.875,2.058-5.001-.829-10.13-1.249-15.245-1.249-51.05,0-92.581,41.532-92.581,92.58,0,26.766,11.582,52.213,31.776,69.815,1.041.907,1.149,2.486.242,3.527-.495.567-1.188.857-1.886.857h0Z" fill="#776464"/>
        <path d="M40.704,176.244h-18.704c-1.381,0-2.5-1.119-2.5-2.5s1.119-2.5,2.5-2.5h16.204v-14.646c0-1.381,1.119-2.5,2.5-2.5s2.5,1.119,2.5,2.5v17.146c0,1.381-1.119,2.5-2.5,2.5Z" fill="#776464"/>
      </g>
    </g>
  </g>
  <path d="M145.631,85.07c-1.12-1.62-8.39-11.67-10.72-13.63-.12-.1-.25-.22-.39-.34-.94-.83-2.37-2.09-4.57-2.84-1.13-.38-2.32-.6-3.53-.65h-45.82c-1.02.01-2.03.13-3.01.36-.89.21-2.68.75-4.65,2.05-1.04.69-1.97,1.51-2.94,2.58-1.62,1.8-10.2,12.47-11.4,16.11-1.6,4.85,1.67,8.88,4.06,11.82.41.5.8.98,1.16,1.45,3.22,4.25,16.53,21.36,20.9,26.91.28.35.84,1.07,1.55,1.99,4.75,6.09,7.44,9.51,8.03,10.12,1.75,1.81,3.26,3.37,5.8,4.14.69.2,1.77.45,3.07.45.91,0,1.93-.12,2.99-.46,2.01-.65,3.31-1.83,5.45-4.23,2.49-2.79,9.29-11.53,13.35-16.75,1.2-1.54,2.13-2.74,2.59-3.31l9.7-12.21c.15-.19,5.14-6.51,5.3-6.7.35-.45,5.05-5.96,5.41-9.22.27-2.42-.52-4.99-2.33-7.64ZM107.881,137.57c-1.89,2.11-2.51,2.56-3.26,2.8-1.26.41-2.47.16-3.07-.02-1.25-.37-2.02-1.13-3.64-2.81-.26-.27-1.2-1.46-2.38-2.95,0-.68-.01-1.54,0-2.53,0-1.56-.01-3.12-.01-4.68-.01-2.45-.01-4.39,0-5.72.01-.5.03-3.55.03-5.3v-3.46c0-.1.15-2.32,1.48-3.98,1.87-2.33,5.11-2.32,6.06-2.32,1.05,0,3.35,0,5.01,1.64.93.91,1.34,1.99,1.52,2.59.35,1.16.46,2.39.47,3.6.01,1.47.02,2.93.02,4.39.02,2.4.03,4.8.03,7.21.01,2.94.02,5.89.02,8.83-.94,1.15-1.73,2.1-2.28,2.71ZM142.991,92.16c-.19,1.74-3.97,6.17-4.36,6.67-.16.19-5.25,6.63-5.31,6.7l-9.68,12.2c-.47.58-1.41,1.79-2.62,3.35-1.47,1.89-3.44,4.42-5.43,6.96,0-.88.01-1.75.02-2.63.05-3.72.18-7.45.1-11.16-.09-3.95-.68-7.6-3.35-10.17-1.32-1.27-2.9-1.98-3.22-2.12-2.9-1.35-7.62-1.13-9.81-.01-.68.26-1.36.56-1.99.92-.22.13-.64.42-.92.61-.36.24-.66.45-.86.59-.01-.73-.01-1.46-.01-2.19v-14.98c0-2.37-.01-4.74-.01-7.11-.05-.27-.19-.73-.56-1.16-.78-.91-1.96-.88-2.14-.88-.24.01-1.17.04-1.95.77-.5.47-.7,1.01-.78,1.28-.02,15.93-.04,31.86-.06,47.79-.64-.82-1.14-1.46-1.4-1.79-4.36-5.54-17.64-22.6-20.85-26.84-.39-.51-.82-1.04-1.26-1.58-2.3-2.84-3.88-5.01-3.19-7.11.7-2.13,7.71-11.38,10.36-14.32.68-.75,1.31-1.31,1.99-1.75,1.41-.93,2.67-1.28,3.03-1.36.62-.15,1.26-.23,1.88-.23h45.67c.71.03,1.4.16,2.06.38,1.25.43,2.12,1.19,2.88,1.87.17.14.33.28.47.41,1.4,1.17,7.59,9.39,9.81,12.63,1.12,1.63,1.62,3.06,1.49,4.26h0Z" fill="#fff"/>
  <path id="Star" d="M117.795,77.329c.298-.805,1.437-.805,1.735,0l2.059,5.565c.123.335.388.598.721.722l5.565,2.059c.805.298.805,1.436,0,1.735l-5.565,2.059c-.335.123-.598.388-.722.721l-2.059,5.565c-.298.806-1.437.806-1.735,0l-2.059-5.565c-.123-.334-.388-.597-.721-.721l-5.564-2.059c-.806-.298-.806-1.437,0-1.735l5.564-2.059c.335-.123.598-.388.722-.721l2.059-5.565h0Z" fill="#fff"/>
</svg>