<?xml version="1.0" encoding="UTF-8"?>
<svg xmlns="http://www.w3.org/2000/svg" width="206.3" height="202.7" version="1.1" viewBox="0 0 206.3 202.7">
  <defs>
    <style>
      .cls-1 {
        fill: none;
        stroke: #483637;
        stroke-linecap: round;
        stroke-linejoin: round;
        stroke-width: 4.8px;
      }

      .cls-2 {
        fill: #776464;
      }

      .cls-3, .cls-4 {
        fill: #fff;
      }

      .cls-4, .cls-5 {
        display: none;
      }

      .cls-6 {
        fill-rule: evenodd;
      }

      .cls-6, .cls-7 {
        fill: #483637;
      }
    </style>
  </defs>
  <!-- Generator: Adobe Illustrator 28.6.0, SVG Export Plug-In . SVG Version: 1.2.0 Build 709)  -->
  <g>
    <g id="Layer_1">
      <g id="Layer_1-2" data-name="Layer_1">
        <g id="Layer_1-2">
          <g id="Layer_1-2-2" data-name="Layer_1-2">
            <path class="cls-4" d="M179.5,100c0-41.4-33.6-75-75-75S29.5,58.6,29.5,100s33.6,75,75,75,75-33.6,75-75Z"/>
            <path class="cls-2" d="M173.9,122.2c-10,40.2-50.7,64.6-90.9,54.6-40.1-10-64.6-50.7-54.6-90.8,10-40.2,50.7-64.6,90.9-54.6s64.6,50.7,54.6,90.8Z"/>
            <path class="cls-7" d="M173.9,122.2c-10,40.2-50.7,64.6-90.9,54.6-40.1-10-64.6-50.7-54.6-90.8,10-40.2,50.7-64.6,90.9-54.6s64.6,50.7,54.6,90.8Z"/>
            <circle class="cls-2" cx="104.5" cy="100" r="75"/>
            <path class="cls-6" d="M44.5,100c0-33.1,26.9-60,60-60s60,26.9,60,60-26.9,60-60,60h-1.1c31.5-.6,56.8-26.3,56.8-57.9s-25.9-57.9-57.9-57.9-57.3,25.4-57.9,56.8c.1-.3.1-.6.1-1Z"/>
            <g id="secondary-2">
              <g id="Tri-2">
                <path class="cls-3" d="M103,149.9h0c-3,0-5.8-1.7-7.2-4.4l-32.5-59c-2.8-5.5-2.3-11.7,1.4-16,3.3-3.9,7.6-4.2,8.8-4.2h58.7c5,0,7.8,2.3,9.3,4.2,3.6,4.1,4.2,10.5,1.5,15.9l-32.5,59.1c-1.6,2.7-4.3,4.4-7.4,4.4h-.1ZM73.4,69.6c-.6,0-3.9,0-6.4,3-2.8,3.2-3.2,8.2-1,12.4l32.5,59c.9,1.7,2.6,2.7,4.5,2.7s3.7-1,4.6-2.7l32.5-59c2.1-4.2,1.7-9.2-1.1-12.4h0c-1.1-1.4-3.1-3.1-6.8-3.1h-58.8v.1Z"/>
              </g>
              <g id="Bold-2">
                <path class="cls-3" d="M127.2,97.4c-1.7-1.9-4.5-2.8-7.6-2.8s-6.6,1.2-9.2,2.6c-2.1,1.7-4.5,3.1-5.5,5.5v-33.5h-4v78.2h4v-36.3c0-2.6.9-4.5,1.9-6.6,1.2-1.9,2.6-3.8,4.7-4.7,1.9-.9,3.8-1.7,6.4-1.7s4.7.9,6.2,2.1c1.7,1.7,2.1,3.6,2.1,5.7v6.4l4-6.6v-.9c0-3.1-1.1-5.7-3-7.4Z"/>
                <path class="cls-3" d="M106.5,149h-7.2v-81.4h7.2v30.6c.5-.4,1.1-.9,1.6-1.3.4-.3.9-.6,1.3-1l.2-.2c3.2-1.7,7-2.8,10-2.8s6.8,1.2,8.7,3.3c2.3,2.1,3.6,5.2,3.5,8.6v1.3l-7.2,11.9v-12.1c0-2-.5-3.4-1.6-4.5-1-.8-2.7-1.7-5.1-1.7s-3.9.7-5.7,1.5c-1.7.7-2.9,2.4-4,4-.9,1.9-1.7,3.6-1.7,5.8v37.9h0v.1ZM102.5,145.8h.8v-35.1h0v-39.9h-.8v75ZM117.9,96.5c3.4,0,5.8,1.3,7.2,2.5h0c2.3,2.4,2.6,5,2.6,6.9v.7l.8-1.3v-.5c0-2.5-.8-4.7-2.5-6.2h0c-1.3-1.6-3.6-2.4-6.4-2.4s-2,0-3,.4h1.3v-.1Z"/>
              </g>
            </g>
          </g>
        </g>
        <g class="cls-5">
          <g>
            <path class="cls-1" d="M132.2,10.9c38.8,12.4,66.9,48.8,66.9,91.8s-43.1,96.3-96.3,96.3-37.7-5.8-52.9-15.8"/>
            <polyline class="cls-1" points="138.2 27.3 132.2 10.9 148.7 5"/>
          </g>
          <g>
            <path class="cls-1" d="M39.6,175.3C19.3,157.7,6.5,131.7,6.5,102.7,6.5,49.5,49.6,6.4,102.8,6.4s10.7.4,15.9,1.3"/>
            <polyline class="cls-1" points="39.6 158 39.6 175.3 20.6 175.3"/>
          </g>
        </g>
      </g>
      <g>
        <g>
          <path class="cls-2" d="M103.15,199.624c-19.129,0-37.651-5.534-53.565-16.003-1.153-.759-1.473-2.31-.714-3.463.759-1.153,2.311-1.473,3.462-.715,15.095,9.932,32.667,15.181,50.817,15.181,51.048,0,92.579-41.531,92.579-92.58,0-40.44-25.855-75.882-64.339-88.194-1.315-.421-2.04-1.828-1.619-3.143.422-1.316,1.833-2.037,3.143-1.62,40.562,12.977,67.815,50.333,67.815,92.957,0,53.806-43.773,97.58-97.579,97.58Z"/>
          <path class="cls-2" d="M138.021,30.16c-1.022,0-1.981-.632-2.351-1.648l-5.869-16.191c-.471-1.298.2-2.732,1.499-3.202l16.256-5.893c1.297-.47,2.731.2,3.202,1.498s-.2,2.732-1.499,3.202l-13.905,5.042,5.018,13.84c.471,1.298-.2,2.732-1.499,3.203-.281.102-.568.15-.852.15Z"/>
        </g>
        <g>
          <path class="cls-2" d="M40.703,176.244c-.583,0-1.168-.202-1.642-.615C17.777,157.076,5.57,130.255,5.57,102.044,5.57,48.238,49.344,4.464,103.15,4.464c5.388,0,10.792.443,16.062,1.316,1.362.226,2.284,1.513,2.059,2.875-.227,1.362-1.522,2.284-2.875,2.058-5.001-.829-10.13-1.249-15.245-1.249C52.101,9.464,10.57,50.996,10.57,102.044c0,26.766,11.582,52.213,31.776,69.815,1.041.907,1.149,2.486.242,3.527-.495.567-1.188.857-1.886.857Z"/>
          <path class="cls-2" d="M40.704,176.244h-18.704c-1.381,0-2.5-1.119-2.5-2.5s1.119-2.5,2.5-2.5h16.204v-14.646c0-1.381,1.119-2.5,2.5-2.5s2.5,1.119,2.5,2.5v17.146c0,1.381-1.119,2.5-2.5,2.5Z"/>
        </g>
      </g>
    </g>
  </g>
</svg>